<?xml version="1.0" encoding="UTF-8" standalone="no"?>
<!DOCTYPE svg PUBLIC "-//W3C//DTD SVG 1.1//EN" "http://www.w3.org/Graphics/SVG/1.1/DTD/svg11.dtd">
<svg width="100%" height="100%" viewBox="0 0 50 29" version="1.1" xmlns="http://www.w3.org/2000/svg" xmlns:xlink="http://www.w3.org/1999/xlink" xml:space="preserve" xmlns:serif="http://www.serif.com/" style="fill-rule:evenodd;clip-rule:evenodd;stroke-linejoin:round;stroke-miterlimit:2;">
    <g transform="matrix(1,0,0,1,-522.197,-461.427)">
        <g transform="matrix(1.49504,0,0,1.49504,-253.05,-37.8736)">
            <g transform="matrix(0.469493,0,0,0.489035,291.114,175.512)">
                <g transform="matrix(1,0,0,1,-3.99103,7.62846)">
                    <path d="M527.734,337.429C527.734,328.979 520.884,322.13 512.435,322.13C503.986,322.13 497.136,328.979 497.136,337.429L504.785,337.429C504.785,333.204 508.21,329.779 512.435,329.779C516.66,329.779 520.084,333.204 520.084,337.429L527.734,337.429Z" style="fill:rgb(228,48,120);"/>
                </g>
                <g transform="matrix(1,0,0,1,18.9574,7.62846)">
                    <path d="M497.136,337.429C497.136,345.878 503.986,352.728 512.435,352.728C520.884,352.728 527.734,345.878 527.734,337.429L520.084,337.429C520.084,341.653 516.66,345.078 512.435,345.078C508.21,345.078 504.785,341.653 504.785,337.429L497.136,337.429Z" style="fill:rgb(228,48,120);"/>
                </g>
                <g transform="matrix(-1.44448,0,0,1.44448,1263.66,-170.301)">
                    <path d="M499.008,345.057L504.872,354.319L493.145,354.319L499.008,345.057Z" style="fill:rgb(228,48,120);"/>
                    <path d="M498.892,342.219L498.775,342.225L498.659,342.236L498.544,342.252L498.429,342.271L498.315,342.295L498.202,342.324L498.091,342.356L497.981,342.393L497.872,342.434L497.765,342.479L497.661,342.528L497.558,342.581L497.457,342.638L497.359,342.699L497.264,342.763L497.171,342.831L497.081,342.902L496.994,342.976L496.91,343.054L496.83,343.135L496.752,343.219L496.679,343.306L496.609,343.395L496.542,343.487L496.48,343.582L490.616,352.844L490.558,352.94L490.504,353.038L490.454,353.139L490.407,353.241L490.366,353.345L490.328,353.45L490.295,353.557L490.266,353.665L490.241,353.773L490.221,353.883L490.206,353.993L490.195,354.104L490.188,354.215L490.186,354.327L490.189,354.438L490.196,354.549L490.207,354.66L490.224,354.77L490.244,354.88L490.269,354.989L490.299,355.096L490.333,355.203L490.371,355.308L490.414,355.411L490.46,355.513L490.511,355.613L490.566,355.712L490.625,355.808L490.688,355.901L490.754,355.992L490.824,356.081L490.898,356.167L490.975,356.25L491.056,356.33L491.139,356.407L491.226,356.481L491.316,356.552L491.408,356.619L491.504,356.683L491.601,356.742L491.701,356.799L491.804,356.851L491.908,356.9L492.014,356.944L492.123,356.985L492.232,357.021L492.343,357.053L492.455,357.081L492.569,357.105L492.683,357.125L492.798,357.14L492.913,357.151L493.029,357.157L493.145,357.16L504.872,357.16L504.988,357.157L505.104,357.151L505.219,357.14L505.334,357.125L505.448,357.105L505.561,357.081L505.674,357.053L505.785,357.021L505.894,356.985L506.002,356.944L506.109,356.9L506.213,356.851L506.315,356.799L506.415,356.742L506.513,356.683L506.608,356.619L506.701,356.552L506.791,356.481L506.877,356.407L506.961,356.33L507.042,356.25L507.119,356.167L507.193,356.081L507.263,355.992L507.329,355.901L507.392,355.808L507.451,355.712L507.506,355.613L507.556,355.513L507.603,355.411L507.646,355.308L507.684,355.203L507.718,355.096L507.747,354.989L507.772,354.88L507.793,354.77L507.809,354.66L507.821,354.549L507.828,354.438L507.831,354.327L507.829,354.215L507.822,354.104L507.811,353.993L507.796,353.883L507.776,353.773L507.751,353.665L507.722,353.557L507.689,353.45L507.651,353.345L507.609,353.241L507.563,353.139L507.513,353.038L507.459,352.94L507.4,352.844L501.537,343.582L501.474,343.487L501.408,343.395L501.338,343.306L501.264,343.219L501.187,343.135L501.107,343.054L501.023,342.976L500.936,342.902L500.846,342.831L500.753,342.763L500.657,342.699L500.559,342.638L500.459,342.581L500.356,342.528L500.251,342.479L500.145,342.434L500.036,342.393L499.926,342.356L499.814,342.324L499.702,342.295L499.588,342.271L499.473,342.252L499.357,342.236L499.241,342.225L499.125,342.219L499.008,342.216L498.892,342.219ZM504.872,354.319L493.145,354.319L499.008,345.057L504.872,354.319Z" style="fill:rgb(19,12,38);"/>
                </g>
                <g transform="matrix(-1.44448,0,0,-1.44448,1217.97,856.864)">
                    <path d="M499.008,345.057L504.872,354.319L493.145,354.319L499.008,345.057Z" style="fill:rgb(228,48,120);"/>
                    <path d="M493.029,357.157L492.913,357.151L492.798,357.14L492.683,357.125L492.569,357.105L492.455,357.081L492.343,357.053L492.232,357.021L492.123,356.985L492.014,356.944L491.908,356.9L491.804,356.851L491.701,356.799L491.601,356.742L491.504,356.683L491.408,356.619L491.316,356.552L491.226,356.481L491.139,356.407L491.056,356.33L490.975,356.25L490.898,356.167L490.824,356.081L490.754,355.992L490.688,355.901L490.625,355.807L490.566,355.712L490.511,355.613L490.46,355.513L490.414,355.411L490.371,355.308L490.333,355.203L490.299,355.096L490.269,354.989L490.244,354.88L490.224,354.77L490.207,354.66L490.196,354.549L490.189,354.438L490.186,354.327L490.188,354.215L490.195,354.104L490.206,353.993L490.221,353.883L490.241,353.773L490.266,353.664L490.295,353.557L490.328,353.45L490.366,353.345L490.407,353.241L490.454,353.139L490.504,353.038L490.558,352.94L490.616,352.844L496.48,343.582L496.542,343.487L496.609,343.395L496.679,343.306L496.752,343.219L496.83,343.135L496.91,343.054L496.994,342.976L497.081,342.902L497.171,342.831L497.264,342.763L497.359,342.699L497.457,342.638L497.558,342.581L497.661,342.528L497.765,342.479L497.872,342.434L497.981,342.393L498.091,342.356L498.202,342.324L498.315,342.296L498.429,342.271L498.544,342.252L498.659,342.236L498.775,342.225L498.892,342.219L499.008,342.216L499.125,342.219L499.241,342.225L499.357,342.236L499.473,342.252L499.588,342.271L499.702,342.296L499.814,342.324L499.926,342.356L500.036,342.393L500.145,342.434L500.251,342.479L500.356,342.528L500.459,342.581L500.559,342.638L500.657,342.699L500.753,342.763L500.846,342.831L500.936,342.902L501.023,342.976L501.107,343.054L501.187,343.135L501.264,343.219L501.338,343.306L501.408,343.395L501.474,343.487L501.537,343.582L507.4,352.844L507.459,352.94L507.513,353.038L507.563,353.139L507.609,353.241L507.651,353.345L507.689,353.45L507.722,353.557L507.751,353.664L507.776,353.773L507.796,353.883L507.811,353.993L507.822,354.104L507.829,354.215L507.831,354.327L507.828,354.438L507.821,354.549L507.809,354.66L507.793,354.77L507.772,354.88L507.747,354.989L507.718,355.096L507.684,355.203L507.646,355.308L507.603,355.411L507.556,355.513L507.506,355.613L507.451,355.712L507.392,355.807L507.329,355.901L507.263,355.992L507.193,356.081L507.119,356.167L507.042,356.25L506.961,356.33L506.878,356.407L506.791,356.481L506.701,356.552L506.608,356.619L506.513,356.683L506.415,356.742L506.315,356.799L506.213,356.851L506.109,356.9L506.002,356.944L505.894,356.985L505.785,357.021L505.674,357.053L505.561,357.081L505.448,357.105L505.334,357.125L505.219,357.14L505.104,357.151L504.988,357.157L504.872,357.16L493.145,357.16L493.029,357.157ZM504.872,354.319L499.008,345.057L493.145,354.319L504.872,354.319Z" style="fill:rgb(19,12,38);"/>
                </g>
            </g>
        </g>
    </g>
</svg>
